<?xml version="1.0" encoding="UTF-8"?>
<svg id="Ebene_2" data-name="Ebene 2" xmlns="http://www.w3.org/2000/svg" viewBox="0 0 452.09 441">
  <defs>
    <style>
      .cls-1 {
        fill: #fff;
      }
    </style>
  </defs>
  <g id="Ebene_1-2" data-name="Ebene 1">
    <g>
      <path d="M136.05,0H23.55C12.48,0-.57,15.37.06,26.52l-.06,385.03c.33,9.18,3.78,19.02,11.71,24.29,1.94,1.29,11.03,5.17,12.83,5.17h111.5V0ZM315.05,441h112.5c1.11,0,9.52-3.13,11.03-3.97,8.39-4.61,13.27-14.05,13.51-23.49V27.46c-.76-10.02-4.29-19.45-13.72-24.28-1.33-.68-7.92-3.18-8.82-3.18h-114.5v149h-147.5c-4.72,4.89-2.23,9.6.33,14.67,14.95,29.54,39.15,58.38,55.34,87.66,3.6,5.56,18.17,15.67,24.33,15.67h67.5v174Z"/>
      <path class="cls-1" d="M315.05,441v-174h-67.5c-6.16,0-20.73-10.11-24.33-15.67-16.19-29.28-40.38-58.12-55.34-87.66-2.57-5.07-5.05-9.78-.33-14.67h147.5V0h114.5c.9,0,7.49,2.5,8.82,3.18,9.43,4.83,12.96,14.26,13.72,24.28v386.08c-.24,9.44-5.12,18.88-13.51,23.49-1.51.83-9.92,3.97-11.03,3.97h-112.5Z"/>
      <path class="cls-1" d="M136.05,0v441H24.55c-1.81,0-10.89-3.88-12.83-5.17-7.93-5.27-11.38-15.1-11.71-24.29L.06,26.52C-.57,15.37,12.48,0,23.55,0h112.5Z"/>
    </g>
  </g>
</svg>